<?xml version="1.0" encoding="UTF-8" standalone="no"?>
<svg width="142px" height="48px" viewBox="0 0 142 48" version="1.1" xmlns="http://www.w3.org/2000/svg" xmlns:xlink="http://www.w3.org/1999/xlink">
    <!-- Generator: Sketch 39.1 (31720) - http://www.bohemiancoding.com/sketch -->
    <title>Google Play - Large</title>
    <desc>Created with Sketch.</desc>
    <defs>
        <rect id="path-1" x="0" y="0" width="140" height="46" rx="2"></rect>
        <mask id="mask-2" maskContentUnits="userSpaceOnUse" maskUnits="objectBoundingBox" x="-1" y="-1" width="142" height="48">
            <rect x="-1" y="-1" width="142" height="48" fill="white"></rect>
            <use xlink:href="#path-1" fill="black"></use>
        </mask>
    </defs>
    <g id="Page-1" stroke="none" stroke-width="1" fill="none" fill-rule="evenodd">
        <g id="Store-Icons" transform="translate(-187.000000, -222.000000)">
            <g id="Google-Play---Large" transform="translate(188.000000, 223.000000)">
                <use id="Rectangle-4" stroke="#5D5D5D" mask="url(#mask-2)" stroke-width="2" xlink:href="#path-1"></use>
                <g id="Text" transform="translate(35.313059, 18.805405)">
                    <g id="Google" fill="#575757">
                        <path d="M61.4981849,13.8294 L60.4741562,14.7919622 C60.2381348,14.9216108 60.0027478,15.0721297 59.7679952,15.1790108 C59.0567585,15.5009189 58.3334669,15.5818703 57.6907525,15.5818703 C57.0067979,15.5818703 55.9345498,15.5382324 54.8413643,14.7495892 C53.3218175,13.6820432 52.6575313,11.8486216 52.6575313,10.2504649 C52.6575313,6.94157838 55.3597233,5.31875676 57.5632248,5.31875676 C58.3341014,5.31875676 59.1252809,5.51101622 59.7686297,5.91640541 C60.8383399,6.62093514 61.1149672,7.53732973 61.2685081,8.02872973 L56.2346524,10.0556757 L54.5863089,10.183427 C55.1198951,12.8959297 56.9611163,14.4738486 58.9958497,14.4738486 C60.0122648,14.4738486 60.7666452,14.1437189 61.4588479,13.8022054 C61.4582135,13.8028378 61.5971616,13.7307405 61.4981849,13.8294 L61.4981849,13.8294 Z M58.4616291,8.43285405 C58.8708599,8.28486486 59.0827716,8.15648108 59.0827716,7.85987027 C59.0827716,7.00735135 58.1152105,6.02328649 56.9604818,6.02328649 C56.1045868,6.02328649 54.499387,6.68734054 54.499387,8.99255676 C54.499387,9.35241081 54.5418962,9.73566486 54.5641026,10.1189189 L58.4616291,8.43285405 L58.4616291,8.43285405 Z" id="Shape"></path>
                        <path d="M50.9742922,13.6637027 C50.9742922,14.4934541 51.1227573,14.6224703 51.8263804,14.6869784 C52.193102,14.7299838 52.5585546,14.7495892 52.9208348,14.7919622 L52.1290209,15.2618595 L48.3558497,15.2618595 C48.8507335,14.6218378 48.9357519,14.5585946 48.9357519,14.1317027 L48.9357519,13.6554811 L48.9275039,0.966989189 L47.2613953,0.966989189 L48.8646917,0.196686486 L51.9266261,0.196686486 C51.2629744,0.579308108 51.0650209,0.813308108 50.9793679,1.55957838 L50.9742922,13.6637027 L50.9742922,13.6637027 Z" id="Shape"></path>
                        <path d="M45.1226094,6.36606486 C45.6136863,6.76892432 46.6402528,7.62334054 46.6402528,9.24552973 C46.6402528,10.8259784 45.7462898,11.5709838 44.8447132,12.2761459 C44.5680859,12.5537838 44.2451425,12.8548216 44.2451425,13.3202919 C44.2451425,13.7920865 44.5687203,14.0482216 44.8015695,14.2392162 L45.5749839,14.8343351 C46.515263,15.6255081 47.372427,16.3509081 47.372427,17.8244757 C47.372427,19.8324486 45.4233465,21.8562324 41.7402695,21.8562324 C38.6377293,21.8562324 37.1378509,20.3839297 37.1378509,18.8047459 C37.1378509,18.0357081 37.5210686,16.9472919 38.7880978,16.2022865 C40.1154013,15.3934054 41.9141133,15.2852595 42.8765987,15.2220162 C42.5758617,14.8349676 42.2326154,14.4295784 42.2326154,13.7680541 C42.2326154,13.4063027 42.3417436,13.1906432 42.447065,12.9364054 C42.2129469,12.9585405 41.9769255,12.9813081 41.7624758,12.9813081 C39.4917209,12.9813081 38.2075611,11.2927135 38.2075611,9.62815135 C38.2075611,8.64661622 38.6567633,7.5582 39.5792773,6.76829189 C40.7999905,5.76651892 42.2554562,5.59386486 43.4120883,5.59386486 L47.824167,5.59386486 L46.4524508,6.36606486 L45.1226094,6.36606486 L45.1226094,6.36606486 Z M43.604966,15.8405351 C43.4298533,15.8177676 43.3245319,15.8177676 43.1126202,15.8177676 C42.9184735,15.8177676 41.7618414,15.8595081 40.865975,16.1592811 C40.3920286,16.3319351 39.0222159,16.8423081 39.0222159,18.3588811 C39.0222159,19.8716595 40.5011568,20.961973 42.7896768,20.961973 C44.8447132,20.961973 45.9366297,19.9798054 45.9366297,18.6573892 C45.9359952,17.568973 45.2298342,16.9947243 43.604966,15.8405351 L43.604966,15.8405351 Z M44.2210328,11.7853784 C44.7159165,11.2933459 44.7590602,10.6128486 44.7590602,10.2258 C44.7590602,8.69088649 43.8409875,6.30029189 42.0613095,6.30029189 C41.5061515,6.30029189 40.9046774,6.57856216 40.5633345,7.00735135 C40.2016887,7.45195135 40.093195,8.02872973 40.093195,8.58337297 C40.093195,10.0126703 40.9287871,12.383027 42.7687394,12.383027 C43.3048634,12.383027 43.8822278,12.1230973 44.2210328,11.7853784 L44.2210328,11.7853784 Z" id="Shape"></path>
                        <path d="M31.8483053,15.5382324 C28.445028,15.5382324 26.6241097,12.8959297 26.6241097,10.5047027 C26.6241097,7.70998378 28.9132642,5.31875676 32.1693453,5.31875676 C35.3169326,5.31875676 37.2882194,7.77512432 37.2882194,10.3541838 C37.2882194,12.8725297 35.3397734,15.5382324 31.8483053,15.5382324 L31.8483053,15.5382324 Z M34.5257531,13.8116919 C35.0434776,13.1286649 35.169102,12.2761459 35.169102,11.4451297 C35.169102,9.56554054 34.2706977,5.98091351 31.6154562,5.98091351 C30.9092952,5.98091351 30.1980584,6.25602162 29.6854097,6.70568108 C28.8491831,7.45258378 28.7000835,8.39048108 28.7000835,9.3113027 C28.7000835,11.4198324 29.7450495,14.8975784 32.3400167,14.8975784 C33.1781467,14.8975784 34.0327728,14.4934541 34.5257531,13.8116919 L34.5257531,13.8116919 Z" id="Shape"></path>
                        <path d="M20.4539249,15.5382324 C17.0500131,15.5382324 15.2316327,12.8959297 15.2316327,10.5047027 C15.2316327,7.70998378 17.5214216,5.31875676 20.7762338,5.31875676 C23.9219177,5.31875676 25.8913011,7.77512432 25.8913011,10.3541838 C25.8919356,12.8725297 23.9460274,15.5382324 20.4539249,15.5382324 L20.4539249,15.5382324 Z M23.1320072,13.8116919 C23.6459249,13.1286649 23.7740871,12.2761459 23.7740871,11.4451297 C23.7740871,9.56554054 22.8731449,5.98091351 20.2204413,5.98091351 C19.5117424,5.98091351 18.8081193,6.25602162 18.2942016,6.70568108 C17.456706,7.45258378 17.3082409,8.39048108 17.3082409,9.3113027 C17.3082409,11.4198324 18.3576482,14.8975784 20.9481741,14.8975784 C21.7844007,14.8975784 22.6377579,14.4934541 23.1320072,13.8116919 L23.1320072,13.8116919 Z" id="Shape"></path>
                        <path d="M13.8713369,14.7976541 L11.0010113,15.4522216 C9.83803459,15.6349946 8.79370304,15.7962649 7.68782826,15.7962649 C2.15084079,15.7962649 0.0418747764,11.7335189 0.0418747764,8.55491351 C0.0418747764,4.67177838 3.03084556,1.07260541 8.14908527,1.07260541 C9.23211926,1.07260541 10.2745474,1.23134595 11.223709,1.48874595 C12.7280286,1.91057838 13.4310173,2.42917297 13.8713369,2.73400541 L12.2039595,4.31255676 L11.5009708,4.4694 L12.0021992,3.67253514 C11.3233202,3.01164324 10.075325,1.79168108 7.70686225,1.79168108 C4.54024091,1.79168108 2.15084079,4.19112973 2.15084079,7.69417297 C2.15084079,11.4565135 4.87904592,14.9956054 9.25305665,14.9956054 C10.5384854,14.9956054 11.2002338,14.7382054 11.8010733,14.4978811 L11.8010733,11.2724757 L8.77086225,11.4350108 L10.3773309,10.5749027 L14.6301586,10.5749027 L14.1105307,11.0738919 C13.9696792,11.1927892 13.9512797,11.2332649 13.9119428,11.3926378 C13.8910054,11.5747784 13.8719714,12.1540865 13.8719714,12.3577297 L13.8719714,14.7976541 L13.8713369,14.7976541 Z" id="Shape"></path>
                    </g>
                    <g id="Play" transform="translate(66.618962, 1.897297)" fill="#434343">
                        <path d="M1.05067621,12.023173 L1.05067621,17.4595622 L-0.0323577818,17.4595622 L-0.0323577818,3.627 L1.05067621,3.627 L1.05067621,5.20175676 C1.75556828,4.18417297 3.04480382,3.37655676 4.54277877,3.37655676 C7.22784019,3.37655676 9.0373381,5.4072973 9.0373381,8.62195135 C9.0373381,11.8151027 7.22784019,13.8882162 4.54277877,13.8882162 C3.12918784,13.8888486 1.86279308,13.1621838 1.05067621,12.023173 L1.05067621,12.023173 Z M7.87372689,8.62258378 C7.87372689,6.19973514 6.60669767,4.35176757 4.36005247,4.35176757 C2.96486106,4.35176757 1.63057841,5.44524324 1.05067621,6.39768649 L1.05067621,10.8253459 C1.63057841,11.7803189 2.96486106,12.9130054 4.36005247,12.9130054 C6.60669767,12.9130054 7.87372689,11.049227 7.87372689,8.62258378 L7.87372689,8.62258378 Z" id="Shape"></path>
                        <polygon id="Shape" points="10.5162791 13.6396703 10.5162791 -0.192259459 11.5986786 -0.192259459 11.5986786 13.6396703 10.5162791 13.6396703"></polygon>
                        <path d="M23.7512463,16.5646703 C23.982192,16.6671243 24.3774645,16.731 24.6287132,16.731 C25.291096,16.731 25.752353,16.4609514 26.1666595,15.5066108 L26.9565701,13.7231514 L22.6897841,3.627 L23.897808,3.627 L27.5574097,12.3760703 L31.1814812,3.627 L32.4066357,3.627 L27.2033775,15.8411676 C26.6634466,17.0997081 25.8138962,17.7049459 24.6471127,17.7049459 C24.2968873,17.7049459 23.8356303,17.6423351 23.5647132,17.5601189 L23.7512463,16.5646703 L23.7512463,16.5646703 Z" id="Shape"></path>
                        <path d="M20.5877973,13.6099459 C20.5154681,13.2627405 20.460904,12.9572757 20.4209326,12.7011405 C20.3873059,12.4462703 20.3689064,12.1857081 20.3689064,11.9207189 C19.9971091,12.4639784 19.4711366,12.9161676 18.7992367,13.2728595 C18.1267024,13.6308162 17.4884293,13.8072649 16.6115969,13.8072649 C15.5564794,13.8072649 14.7380179,13.5486 14.15304,13.0236811 C13.5705999,12.4993946 13.2774764,11.789173 13.2774764,10.8904865 C13.2774764,9.99306486 13.7019344,9.2645027 14.5483125,8.70732973 C15.3946905,8.14762703 16.4891449,7.86998919 17.8424615,7.86998919 L20.3682719,7.86998919 L20.3682719,6.62536216 C20.3682719,5.90881622 20.1227335,5.34595135 19.6341944,4.93676757 C19.1431175,4.52821622 18.4540871,4.32077838 17.560124,4.32077838 C16.7435659,4.32077838 16.0811831,4.50987568 15.5767823,4.87795135 C15.0768229,5.25361622 14.8255742,5.71908649 14.8255742,6.28005405 L13.7171616,6.28005405 L13.6943208,6.2262973 C13.653715,5.47054054 14.0014025,4.80648649 14.7392868,4.23413514 C15.4733643,3.66178378 16.4364842,3.37402703 17.6210328,3.37402703 C18.8011401,3.37402703 19.7566464,3.65735676 20.4774001,4.22275135 C21.1968849,4.78245405 21.5578962,5.59133514 21.5578962,6.64876216 L21.5578962,11.5886919 C21.5578962,11.9434865 21.5743924,12.2862649 21.6194395,12.6201892 C21.665121,12.9547459 21.7380847,13.2886703 21.835158,13.6112108 L20.5877973,13.6112108 L20.5877973,13.6099459 Z M16.7448348,12.8232 C17.664811,12.8232 18.3259249,12.6182919 19.002266,12.2129027 C19.6735313,11.8094108 20.1297126,11.2838595 20.3695408,10.6476324 L20.3695408,8.72503784 L17.8316756,8.72503784 C16.8622111,8.72503784 16.0596112,8.9388 15.4283172,9.37075135 C14.7957543,9.80080541 14.4747144,10.3212973 14.4747144,10.9265351 C14.4747144,11.4969892 14.6777436,11.9542378 15.0818986,12.3001784 C15.4860537,12.6499135 16.0393083,12.8232 16.7448348,12.8232 L16.7448348,12.8232 Z" id="Shape"></path>
                    </g>
                </g>
                <g id="Get-It-On" transform="translate(35.313059, 5.524324)" fill="#4B4B4B">
                    <path d="M0.0152271914,3.63964865 C0.0152271914,1.51404324 1.59948956,0.147356757 3.57014192,0.147356757 C4.89046631,0.147356757 5.75334049,0.77472973 6.29200239,1.5444 L5.32697913,2.10157297 C4.96152654,1.59499459 4.32135003,1.20035676 3.57014192,1.20035676 C2.23014908,1.20035676 1.23403697,2.21288108 1.23403697,3.63964865 C1.23403697,5.04681081 2.22951461,6.07894054 3.57014192,6.07894054 C4.26107573,6.07894054 4.87016339,5.76525405 5.17470722,5.47180541 L5.17470722,4.42892432 L3.14378056,4.42892432 L3.14378056,3.38667568 L6.35291115,3.38667568 L6.35291115,5.90691892 C5.69306619,6.64623243 4.73819439,7.14205946 3.57014192,7.14205946 C1.59948956,7.14205946 0.0152271914,5.75576757 0.0152271914,3.63964865 L0.0152271914,3.63964865 Z" id="Shape"></path>
                    <polygon id="Shape" points="7.82233512 7.01051351 7.82233512 0.258032432 12.4628217 0.258032432 12.4628217 1.30091351 9.01005605 1.30091351 9.01005605 3.042 12.3923959 3.042 12.3923959 4.08488108 9.01005605 4.08488108 9.01005605 5.96826486 12.4628217 5.96826486 12.4628217 7.01051351 7.82233512 7.01051351"></polygon>
                    <polygon id="Shape" points="15.7512606 7.01051351 15.7512606 1.30154595 13.700031 1.30154595 13.700031 0.258664865 18.9908456 0.258664865 18.9908456 1.30154595 16.9402504 1.30154595 16.9402504 7.01051351"></polygon>
                    <polygon id="Shape" points="23.1205868 7.01051351 23.1205868 0.258032432 24.3083077 0.258032432 24.3083077 7.01051351"></polygon>
                    <polygon id="Shape" points="27.617684 7.01051351 27.617684 1.30154595 25.5664544 1.30154595 25.5664544 0.258664865 30.8572689 0.258664865 30.8572689 1.30154595 28.8060394 1.30154595 28.8060394 7.01051351"></polygon>
                    <path d="M34.6926178,3.63964865 C34.6926178,1.62471892 36.1246082,0.147356757 38.1561694,0.147356757 C40.1763101,0.147356757 41.6190865,1.62535135 41.6190865,3.63964865 C41.6190865,5.65394595 40.1763101,7.13194054 38.1561694,7.13194054 C36.1239738,7.13194054 34.6926178,5.65394595 34.6926178,3.63964865 L34.6926178,3.63964865 Z M40.4002767,3.63964865 C40.4002767,2.24260541 39.5164651,1.20035676 38.1561694,1.20035676 C36.7850877,1.20035676 35.9114275,2.24260541 35.9114275,3.63964865 C35.9114275,5.02594054 36.7850877,6.07894054 38.1561694,6.07894054 C39.5164651,6.07894054 40.4002767,5.02594054 40.4002767,3.63964865 L40.4002767,3.63964865 Z" id="Shape"></path>
                    <polygon id="Shape" points="47.728997 7.01051351 44.1950197 2.18189189 44.1950197 7.01051351 43.0072987 7.01051351 43.0072987 0.258032432 44.2261085 0.258032432 47.6890256 4.9355027 47.6890256 0.258032432 48.877381 0.258032432 48.877381 7.01051351"></polygon>
                </g>
                <path d="M9.61910394,38.995639 C9.22856188,38.8904429 8.97435897,38.5027041 8.97435897,37.9026958 L8.97435897,18.0973042 C8.97435897,17.5416051 9.1895963,17.1668265 9.53078904,17.0305642 L9.53078904,17.0305642 L19.2635661,28.0678276 L9.61910394,38.995639 L9.61910394,38.995639 Z M10.9588907,38.575234 L22.6740827,31.9354564 L19.8206812,28.6996128 L10.9588907,38.575234 L10.9588907,38.575234 Z M22.7547546,24.1120809 L11.2028263,17.563314 L19.8375729,27.4174401 L22.7547546,24.1120809 L22.7547546,24.1120809 Z M23.5385435,24.5564095 L28.0639529,27.1218557 C28.920785,27.6075923 28.9286208,28.3905942 28.0639529,28.8806589 L23.4240551,31.5103973 L20.3976615,28.0566232 L23.5385435,24.5564095 L23.5385435,24.5564095 Z" id="google-play" fill="#5D5D5D"></path>
            </g>
        </g>
    </g>
</svg>